:SAMPLES-PER-SECOND 30
:FULLY-SPECIFIED
:DEGREES
470
root  -0.296641 34.3047 27.7264 3.39095 9.48228 -1.37455
LeftUpLeg  -13.1444 6.51795 6.85691
LeftLeg  12.0487 1.05344 0.153533
LeftFoot  8.0722 -0.0130357 0.183597
LeftToes  -23.2877 2.60077e-006 -1.42232e-007
Spine  1.54668 3.32743 -1.48894
Spine1  2.80916 6.99284 -2.99436
RightShoulder  0.0484225 7.03616 5.06743
RightArm  0.247684 -8.98185 56.9886
RightForeArm  67.1424 65.4371 22.7521
RightHand  -1.52666 9.36397 -18.1225
LeftShoulder1  0.0355729 0.411939 -12.004
LeftArm  -24.385 16.7952 -63.6585
LeftForeArm  37.1703 -8.60139 -1.52155
LeftHand  0.202458 4.5792 4.68334
HEad  -6.11447 -21.2075 -2.08013
RightUpLeg  -10.4474 -7.82897 1.38511
RightLeg  16.0789 2.09713 0.461059
RightFoot  -3.72655 -0.014629 -0.0721466
RightToes  -26.1302 -0.120874 -0.226308
471
root  -0.345191 34.2994 27.6685 3.36128 9.97162 -1.51008
LeftUpLeg  -13.3514 6.28969 7.01638
LeftLeg  12.014 0.808991 0.117088
LeftFoot  8.24223 -0.0100296 0.145892
LeftToes  -23.3298 2.60077e-006 -1.42232e-007
Spine  1.54657 3.28805 -1.51787
Spine1  2.77616 6.8638 -2.97314
RightShoulder  0.0488916 7.11397 5.24094
RightArm  -2.06404 -8.44663 59.2007
RightForeArm  66.9647 65.6554 22.9998
RightHand  -1.53699 9.34665 -18.2796
LeftShoulder1  0.0437974 0.341981 -12.2072
LeftArm  -24.0196 14.9987 -63.5037
LeftForeArm  36.8449 -9.11836 -1.61478
LeftHand  0.198133 4.3963 4.7809
HEad  -6.09453 -21.5174 -1.9651
RightUpLeg  -10.5124 -7.96389 1.59559
RightLeg  16.1584 1.7272 0.382272
RightFoot  -4.55575 -0.0178527 -0.0712749
RightToes  -26.1556 -0.120932 -0.226457
472
root  -0.383873 34.3 27.6163 3.33472 10.5756 -1.65276
LeftUpLeg  -13.5398 6.13495 7.14588
LeftLeg  11.8889 0.401729 0.056563
LeftFoot  8.48552 -0.00526836 0.0814627
LeftToes  -23.6429 2.60077e-006 -1.42232e-007
Spine  1.54739 3.23695 -1.5203
Spine1  2.74537 6.7007 -2.89471
RightShoulder  0.0500702 7.14397 5.33843
RightArm  -4.17295 -7.41223 61.4121
RightForeArm  66.3406 65.375 22.6865
RightHand  -1.48368 9.10405 -18.1176
LeftShoulder1  0.0503718 0.381052 -12.2798
LeftArm  -23.2394 13.1029 -63.6859
LeftForeArm  36.1182 -9.96958 -1.7691
LeftHand  0.182449 4.20707 4.58667
HEad  -5.74503 -21.8942 -1.82634
RightUpLeg  -10.5825 -8.17207 1.79113
RightLeg  16.2865 1.38288 0.309319
RightFoot  -5.50107 -0.0193118 -0.0649454
RightToes  -26.2367 -0.120998 -0.226603
473
root  -0.418737 34.3071 27.5702 3.30051 11.1525 -1.75292
LeftUpLeg  -13.621 6.03332 7.22745
LeftLeg  11.6029 -0.0400894 -0.00692135
LeftFoot  8.76387 0.000149265 0.00739503
LeftToes  -23.8114 2.60077e-006 -1.42232e-007
Spine  1.52744 3.20931 -1.50637
Spine1  2.6773 6.58175 -2.79384
RightShoulder  0.0517981 7.20891 5.27594
RightArm  -5.89562 -6.17188 63.488
RightForeArm  65.5076 64.7756 22.0385
RightHand  -1.43005 8.82296 -18.0215
LeftShoulder1  0.0557036 0.401897 -12.209
LeftArm  -22.2117 11.3685 -64.1552
LeftForeArm  35.1195 -11.1101 -1.97721
LeftHand  0.167873 4.06628 4.34878
HEad  -5.17862 -22.2299 -1.81976
RightUpLeg  -10.5804 -8.04856 1.94541
RightLeg  16.2755 0.870224 0.194543
RightFoot  -6.14771 -0.0216127 -0.0249215
RightToes  -26.0671 -0.121071 -0.226746
474
root  -0.444513 34.3217 27.5167 3.27192 11.6775 -1.83523
LeftUpLeg  -13.6236 5.85007 7.28141
LeftLeg  11.1639 -0.34558 -0.0466784
LeftFoot  9.11714 0.00446923 -0.0490421
LeftToes  -23.9777 2.60077e-006 -1.42232e-007
Spine  1.50747 3.22166 -1.5038
Spine1  2.60806 6.55582 -2.74178
RightShoulder  0.0538016 7.35836 5.20455
RightArm  -7.15263 -4.9912 65.1235
RightForeArm  64.5309 64.1563 21.4023
RightHand  -1.35799 8.33928 -18.1108
LeftShoulder1  0.0591971 0.416377 -12.0109
LeftArm  -20.8878 9.79243 -64.7873
LeftForeArm  33.8712 -12.5127 -2.23547
LeftHand  0.153515 3.90364 4.12509
HEad  -4.68357 -22.5434 -1.61495
RightUpLeg  -10.5262 -8.18759 2.06065
RightLeg  16.1046 0.549684 0.121281
RightFoot  -6.56815 -0.0213855 0.00485636
RightToes  -26.0143 -0.121152 -0.226882
475
root  -0.463065 34.3352 27.46 3.18777 12.2276 -1.91456
LeftUpLeg  -13.5983 5.65592 7.32049
LeftLeg  10.7567 -0.67333 -0.0848096
LeftFoot  9.45653 0.0091877 -0.11109
LeftToes  -24.1162 2.60077e-006 -1.42232e-007
Spine  1.5055 3.24867 -1.48997
Spine1  2.57853 6.57612 -2.69343
RightShoulder  0.0559635 7.38037 5.21795
RightArm  -8.10879 -3.84449 66.4179
RightForeArm  63.8047 63.485 20.7457
RightHand  -1.34202 8.19867 -18.2063
LeftShoulder1  0.0601649 0.383925 -11.9087
LeftArm  -19.3288 8.3868 -65.3631
LeftForeArm  32.4669 -14.0592 -2.52362
LeftHand  0.140837 3.69302 3.989
HEad  -4.29455 -22.8406 -1.31768
RightUpLeg  -10.3552 -8.43765 2.15643
RightLeg  15.7788 0.311907 0.0671584
RightFoot  -6.81933 -0.0202657 0.0291594
RightToes  -25.8589 -0.12124 -0.227013
476
root  -0.473957 34.3444 27.4017 3.07357 12.7886 -1.97951
LeftUpLeg  -13.6049 5.41808 7.33457
LeftLeg  10.4818 -0.975922 -0.117578
LeftFoot  9.70047 0.0143547 -0.169176
LeftToes  -23.9711 2.60077e-006 -1.42232e-007
Spine  1.51673 3.27729 -1.45578
Spine1  2.58006 6.61501 -2.62434
RightShoulder  0.0579788 7.35237 5.2723
RightArm  -8.58557 -2.99124 67.1739
RightForeArm  63.1857 63.0062 20.2981
RightHand  -1.30771 7.99045 -18.2049
LeftShoulder1  0.0600865 0.386044 -11.874
LeftArm  -17.8701 7.11527 -66.0012
LeftForeArm  31.4926 -15.4947 -2.79446
LeftHand  0.128365 3.41688 3.92372
HEad  -4.03254 -23.0888 -1.05984
RightUpLeg  -10.212 -8.61715 2.21742
RightLeg  15.5405 -0.00347011 -0.000331655
RightFoot  -6.79126 -0.0195936 0.0643554
RightToes  -25.6489 -0.121334 -0.227135
477
root  -0.459893 34.3554 27.3571 2.93411 13.2909 -1.99914
LeftUpLeg  -13.5462 5.3425 7.25979
LeftLeg  10.2279 -1.3693 -0.158295
LeftFoot  9.93597 0.0199409 -0.243797
LeftToes  -23.9539 2.60077e-006 -1.42232e-007
Spine  1.54675 3.31331 -1.40586
Spine1  2.62789 6.68166 -2.5397
RightShoulder  0.0595405 7.34105 5.30662
RightArm  -8.80396 -2.47256 67.5013
RightForeArm  62.658 62.6056 19.9357
RightHand  -1.27566 7.80643 -18.1789
LeftShoulder1  0.0592311 0.445208 -11.8111
LeftArm  -16.4469 6.0707 -66.7868
LeftForeArm  30.6934 -16.7788 -3.03999
LeftHand  0.121006 3.21932 3.9256
HEad  -3.97603 -23.2902 -0.793391
RightUpLeg  -10.055 -8.99296 2.17566
RightLeg  15.3672 -0.108582 -0.0220037
RightFoot  -6.38008 -0.0170117 0.0723298
RightToes  -25.645 -0.121436 -0.227248
478
root  -0.446531 34.361 27.3081 2.8194 13.7295 -2.01427
LeftUpLeg  -13.5557 5.36343 7.17923
LeftLeg  10.0854 -1.83984 -0.207618
LeftFoot  10.1157 0.0263196 -0.331989
LeftToes  -23.81 2.60077e-006 -1.42232e-007
Spine  1.57607 3.35664 -1.35332
Spine1  2.67693 6.77671 -2.46474
RightShoulder  0.0607363 7.35795 5.46071
RightArm  -8.86091 -2.27539 67.4003
RightForeArm  62.2574 62.2149 19.5921
RightHand  -1.24948 7.71151 -18.0255
LeftShoulder1  0.0578678 0.466649 -11.6463
LeftArm  -15.3353 5.3224 -67.6621
LeftForeArm  30.0731 -17.8368 -3.24486
LeftHand  0.109132 2.97007 3.82881
HEad  -3.95604 -23.4684 -0.511218
RightUpLeg  -9.93363 -9.06098 2.12918
RightLeg  15.1615 -0.403551 -0.0814204
RightFoot  -5.70114 -0.0149695 0.0960528
RightToes  -25.7706 -0.121543 -0.227351
479
root  -0.42398 34.3629 27.2725 2.6755 14.1718 -2.03265
LeftUpLeg  -13.5174 5.11725 7.12523
LeftLeg  9.97251 -2.06423 -0.228656
LeftFoot  10.2462 0.0297597 -0.375702
LeftToes  -23.7477 2.60077e-006 -1.42232e-007
Spine  1.61073 3.36953 -1.29641
Spine1  2.74173 6.81963 -2.39019
RightShoulder  0.0618093 7.34836 5.70932
RightArm  -8.67526 -2.36624 67.0148
RightForeArm  62.0533 61.6947 19.148
RightHand  -1.23972 7.56924 -18.2228
LeftShoulder1  0.055145 0.478653 -11.4426
LeftArm  -14.1024 4.94029 -68.4799
LeftForeArm  29.3745 -18.6967 -3.41332
LeftHand  0.108293 2.94149 3.83694
HEad  -3.93082 -23.6481 -0.209586
RightUpLeg  -9.75194 -9.31938 2.06635
RightLeg  14.9536 -0.570392 -0.113078
RightFoot  -5.09697 -0.012226 0.102876
RightToes  -26.1012 -0.121656 -0.227442
480
root  -0.392703 34.3585 27.2346 2.49068 14.5758 -2.05
LeftUpLeg  -13.5135 5.01819 7.04345
LeftLeg  10.0312 -2.38895 -0.266907
LeftFoot  10.2641 0.0340913 -0.434395
LeftToes  -23.5327 2.60077e-006 -1.42232e-007
Spine  1.67222 3.35135 -1.22279
Spine1  2.85647 6.80027 -2.27476
RightShoulder  0.0627167 7.37525 5.96995
RightArm  -8.48735 -2.68959 66.3634
RightForeArm  61.8272 61.1604 18.7085
RightHand  -1.25408 7.68394 -18.1574
LeftShoulder1  0.0536422 0.434589 -11.328
LeftArm  -13.1106 4.85002 -69.1659
LeftForeArm  28.8842 -19.2661 -3.52586
LeftHand  0.10429 2.97307 3.7045
HEad  -3.88973 -23.7696 -0.0221051
RightUpLeg  -9.59974 -9.51703 1.97814
RightLeg  14.8919 -0.774512 -0.152856
RightFoot  -4.48148 -0.0106515 0.110141
RightToes  -26.5818 -0.121775 -0.227521
481
root  -0.355701 34.352 27.2076 2.35602 14.908 -2.04846
LeftUpLeg  -13.5227 4.95018 6.9386
LeftLeg  10.1049 -2.64531 -0.298857
LeftFoot  10.2411 0.0375292 -0.480261
LeftToes  -23.3414 2.60077e-006 -1.42232e-007
Spine  1.74032 3.3131 -1.15024
Spine1  2.9881 6.73081 -2.14501
RightShoulder  0.0634711 7.3691 6.14991
RightArm  -8.34055 -3.25228 65.6186
RightForeArm  61.6817 60.9315 18.5253
RightHand  -1.22141 7.47847 -18.1721
LeftShoulder1  0.052633 0.369267 -11.2511
LeftArm  -12.387 4.98148 -69.7498
LeftForeArm  28.7999 -19.4366 -3.55967
LeftHand  0.0978599 2.94508 3.37702
HEad  -3.91266 -23.9023 0.0915648
RightUpLeg  -9.54626 -9.70595 1.87283
RightLeg  14.9739 -0.921945 -0.183451
RightFoot  -3.91227 -0.00923325 0.111248
RightToes  -26.8606 -0.1219 -0.227599
